<svg xmlns="http://www.w3.org/2000/svg" xmlns:xlink="http://www.w3.org/1999/xlink" version="1.1" width="256" height="256" viewBox="0 0 256 256" xml:space="preserve">

<defs>
</defs>
<g style="stroke: none; stroke-width: 0; stroke-dasharray: none; stroke-linecap: butt; stroke-linejoin: miter; stroke-miterlimit: 10; fill: none; fill-rule: nonzero; opacity: 1;" transform="translate(1.4065934065934016 1.4065934065934016) scale(2.81 2.81)" >
	<circle cx="45" cy="45" r="45" style="stroke: none; stroke-width: 1; stroke-dasharray: none; stroke-linecap: butt; stroke-linejoin: miter; stroke-miterlimit: 10; fill: rgb(102,123,218)
; fill-rule: nonzero; opacity: 1;" transform="  matrix(1 0 0 1 0 0) "/>
	<path d="M 20.907 41.898 c -0.64 0 -1.28 -0.244 -1.768 -0.732 c -0.977 -0.976 -0.977 -2.559 0 -3.535 l 12.189 -12.189 c 0.976 -0.977 2.56 -0.977 3.535 0 c 0.977 0.976 0.977 2.559 0 3.535 L 22.674 41.166 C 22.187 41.654 21.546 41.898 20.907 41.898 z" style="stroke: none; stroke-width: 1; stroke-dasharray: none; stroke-linecap: butt; stroke-linejoin: miter; stroke-miterlimit: 10; fill: rgb(102,123,218); fill-rule: nonzero; opacity: 1;" transform=" matrix(1 0 0 1 0 0) " stroke-linecap="round" />
	<path d="M 65.204 37.465 H 13.558 c -0.998 0 -1.744 0.735 -1.541 1.517 l 7.695 29.598 c 0.152 0.585 0.795 1.003 1.541 1.003 H 57.51 c 0.746 0 1.389 -0.419 1.541 -1.003 l 7.695 -29.598 C 66.949 38.2 66.203 37.465 65.204 37.465 z M 30.853 62.887 c 0 0.536 -0.435 0.971 -0.971 0.971 h -3.03 c -0.536 0 -0.971 -0.435 -0.971 -0.971 V 44.939 c 0 -0.536 0.435 -0.971 0.971 -0.971 h 3.03 c 0.536 0 0.971 0.435 0.971 0.971 V 62.887 z M 41.867 62.887 c 0 0.536 -0.435 0.971 -0.971 0.971 h -3.03 c -0.536 0 -0.971 -0.435 -0.971 -0.971 V 44.939 c 0 -0.536 0.435 -0.971 0.971 -0.971 h 3.03 c 0.536 0 0.971 0.435 0.971 0.971 V 62.887 z M 52.882 62.887 c 0 0.536 -0.435 0.971 -0.971 0.971 h -3.03 c -0.536 0 -0.971 -0.435 -0.971 -0.971 V 44.939 c 0 -0.536 0.435 -0.971 0.971 -0.971 h 3.03 c 0.536 0 0.971 0.435 0.971 0.971 V 62.887 z" style="stroke: none; stroke-width: 1; stroke-dasharray: none; stroke-linecap: butt; stroke-linejoin: miter; stroke-miterlimit: 10; fill: rgb(102,123,218); fill-rule: nonzero; opacity: 1;" transform=" matrix(1 0 0 1 0 0) " stroke-linecap="round" />
	<path d="M 57.855 41.898 c -0.64 0 -1.279 -0.244 -1.768 -0.732 L 43.898 28.977 c -0.977 -0.976 -0.977 -2.559 0 -3.535 c 0.976 -0.977 2.559 -0.977 3.535 0 L 59.623 37.63 c 0.977 0.976 0.977 2.559 0 3.535 C 59.135 41.654 58.495 41.898 57.855 41.898 z" style="stroke: none; stroke-width: 1; stroke-dasharray: none; stroke-linecap: butt; stroke-linejoin: miter; stroke-miterlimit: 10; fill: rgb(102,123,218); fill-rule: nonzero; opacity: 1;" transform=" matrix(1 0 0 1 0 0) " stroke-linecap="round" />
	<path d="M 23.764 39.042 c -0.64 0 -1.28 -0.244 -1.768 -0.732 c -0.977 -0.976 -0.977 -2.559 0 -3.535 l 12.189 -12.189 c 0.976 -0.977 2.56 -0.977 3.535 0 c 0.977 0.976 0.977 2.559 0 3.535 L 25.531 38.309 C 25.043 38.797 24.403 39.042 23.764 39.042 z" style="stroke: none; stroke-width: 1; stroke-dasharray: none; stroke-linecap: butt; stroke-linejoin: miter; stroke-miterlimit: 10; fill: rgb(255,255,255); fill-rule: nonzero; opacity: 1;" transform=" matrix(1 0 0 1 0 0) " stroke-linecap="round" />
	<path d="M 68.061 34.609 H 16.415 c -0.998 0 -1.744 0.735 -1.541 1.517 l 7.695 29.598 c 0.152 0.585 0.795 1.003 1.541 1.003 h 36.257 c 0.746 0 1.389 -0.419 1.541 -1.003 l 7.695 -29.598 C 69.805 35.343 69.059 34.609 68.061 34.609 z M 33.71 60.03 c 0 0.536 -0.435 0.971 -0.971 0.971 h -3.03 c -0.536 0 -0.971 -0.435 -0.971 -0.971 V 42.083 c 0 -0.536 0.435 -0.971 0.971 -0.971 h 3.03 c 0.536 0 0.971 0.435 0.971 0.971 V 60.03 z M 44.724 60.03 c 0 0.536 -0.435 0.971 -0.971 0.971 h -3.03 c -0.536 0 -0.971 -0.435 -0.971 -0.971 V 42.083 c 0 -0.536 0.435 -0.971 0.971 -0.971 h 3.03 c 0.536 0 0.971 0.435 0.971 0.971 V 60.03 z M 55.738 60.03 c 0 0.536 -0.435 0.971 -0.971 0.971 h -3.03 c -0.536 0 -0.971 -0.435 -0.971 -0.971 V 42.083 c 0 -0.536 0.435 -0.971 0.971 -0.971 h 3.03 c 0.536 0 0.971 0.435 0.971 0.971 V 60.03 z" style="stroke: none; stroke-width: 1; stroke-dasharray: none; stroke-linecap: butt; stroke-linejoin: miter; stroke-miterlimit: 10; fill: rgb(255,255,255); fill-rule: nonzero; opacity: 1;" transform=" matrix(1 0 0 1 0 0) " stroke-linecap="round" />
	<path d="M 60.712 39.042 c -0.64 0 -1.279 -0.244 -1.768 -0.732 L 46.755 26.12 c -0.977 -0.976 -0.977 -2.559 0 -3.535 c 0.977 -0.977 2.559 -0.977 3.535 0 l 12.189 12.189 c 0.977 0.976 0.977 2.559 0 3.535 C 61.991 38.797 61.352 39.042 60.712 39.042 z" style="stroke: none; stroke-width: 1; stroke-dasharray: none; stroke-linecap: butt; stroke-linejoin: miter; stroke-miterlimit: 10; fill: rgb(255,255,255); fill-rule: nonzero; opacity: 1;" transform=" matrix(1 0 0 1 0 0) " stroke-linecap="round" />
	<circle cx="65.315" cy="61.595" r="16.665" style="stroke: none; stroke-width: 1; stroke-dasharray: none; stroke-linecap: butt; stroke-linejoin: miter; stroke-miterlimit: 10; fill: rgb(102,123,218)
; fill-rule: nonzero; opacity: 1;" transform="  matrix(1 0 0 1 0 0) "/>
	<path d="M 70.734 67.154 H 53.583 c -1.657 0 -3 -1.343 -3 -3 s 1.343 -3 3 -3 h 17.151 c 1.657 0 3 1.343 3 3 S 72.392 67.154 70.734 67.154 z" style="stroke: none; stroke-width: 1; stroke-dasharray: none; stroke-linecap: butt; stroke-linejoin: miter; stroke-miterlimit: 10; fill: rgb(102,123,218); fill-rule: nonzero; opacity: 1;" transform=" matrix(1 0 0 1 0 0) " stroke-linecap="round" />
	<path d="M 62.159 75.729 c -1.657 0 -3 -1.343 -3 -3 v -17.15 c 0 -1.657 1.343 -3 3 -3 s 3 1.343 3 3 v 17.15 C 65.159 74.387 63.816 75.729 62.159 75.729 z" style="stroke: none; stroke-width: 1; stroke-dasharray: none; stroke-linecap: butt; stroke-linejoin: miter; stroke-miterlimit: 10; fill: rgb(102,123,218); fill-rule: nonzero; opacity: 1;" transform=" matrix(1 0 0 1 0 0) " stroke-linecap="round" />
	<path d="M 73.591 64.297 H 56.44 c -1.657 0 -3 -1.343 -3 -3 s 1.343 -3 3 -3 h 17.15 c 1.657 0 3 1.343 3 3 S 75.248 64.297 73.591 64.297 z" style="stroke: none; stroke-width: 1; stroke-dasharray: none; stroke-linecap: butt; stroke-linejoin: miter; stroke-miterlimit: 10; fill: rgb(255,255,255); fill-rule: nonzero; opacity: 1;" transform=" matrix(1 0 0 1 0 0) " stroke-linecap="round" />
	<path d="M 65.016 72.873 c -1.657 0 -3 -1.343 -3 -3 V 52.722 c 0 -1.657 1.343 -3 3 -3 s 3 1.343 3 3 v 17.151 C 68.016 71.53 66.673 72.873 65.016 72.873 z" style="stroke: none; stroke-width: 1; stroke-dasharray: none; stroke-linecap: butt; stroke-linejoin: miter; stroke-miterlimit: 10; fill: rgb(255,255,255); fill-rule: nonzero; opacity: 1;" transform=" matrix(1 0 0 1 0 0) " stroke-linecap="round" />
</g>
</svg>