<?xml version="1.0" encoding="utf-8"?>
<!-- Svg Vector Icons : http://www.onlinewebfonts.com/icon -->
<!DOCTYPE svg PUBLIC "-//W3C//DTD SVG 1.1//EN" "http://www.w3.org/Graphics/SVG/1.1/DTD/svg11.dtd">
<svg version="1.1" xmlns="http://www.w3.org/2000/svg" xmlns:xlink="http://www.w3.org/1999/xlink" x="0px" y="0px" viewBox="0 0 1000 1000" enable-background="new 0 0 1000 1000" xml:space="preserve">
<metadata> Svg Vector Icons : http://www.onlinewebfonts.com/icon </metadata>
<g><g transform="translate(0.000000,511.000000) scale(0.100000,-0.100000)"><path d="M3485.9,3950l-580.6-624.6l92-93.9c51.7-51.7,101.5-93.9,113-92c9.6,0,197.4,193.5,415.8,429.2l396.6,429.2l5.8-800.9c5.7-758.8,7.7-804.8,42.1-843.1c42.2-47.9,139.9-53.7,195.4-13.4c34.5,26.8,36.4,63.2,46,846.9l9.6,818.2l402.4-434.9c220.3-237.6,406.2-433,412-433c7.7,0,57.5,40.2,113,92l99.6,90.1l-580.6,626.6c-320,344.9-584.4,626.6-590.1,626.6C4072.2,4574.7,3805.9,4293,3485.9,3950z"/><path d="M8143.9,4273.8c-130.3-63.2-130.3-65.1-293.1-1084.5c-84.3-519.3-155.2-961.9-161-984.9l-9.6-44.1H3986c-3625.2,0-3694.2,0-3753.6-38.3c-74.7-46-118.8-109.2-132.2-193.5c-13.4-78.6,841.2-3790,891-3878.2c17.2-30.6,61.3-72.8,97.7-95.8c67.1-38.3,90.1-38.3,2992.9-44.1l2925.9-3.8l-9.6-53.6c-5.8-28.7-19.2-120.7-32.6-205l-23-153.3l-2855-9.6l-2855-9.6l-109.2-42.2c-247.2-93.9-415.8-247.2-525-475.2c-226.1-473.3-32.6-1002.1,448.4-1232c145.6-69,151.4-70.9,377.5-70.9c226.1,0,231.9,1.9,377.5,70.9c241.4,115,408.1,298.9,496.3,544.1c49.8,138,55.6,410.1,11.5,549.9l-28.7,90.1h1971.7h1969.7l-26.8-78.5c-74.7-207-46-492.4,69-707.1c113.1-210.8,364.1-406.2,594-457.9c118.8-28.8,335.3-24.9,448.4,5.8c260.6,69,479,252.9,599.7,503.9c70.9,147.5,70.9,151.3,70.9,389c-1.9,220.4-5.7,249.1-53.7,354.5c-90.1,193.5-183.9,298.9-385.1,438.8c-36.4,24.9-21.1,122.6,469.4,3197.9l505.9,3175h574.8c526.9,0,582.5,3.8,657.2,38.3c63.2,28.7,90.1,55.6,118.8,118.8c46,103.5,47.9,157.1,1.9,258.7c-26.8,57.5-59.4,92-115,118.8c-74.7,38.3-107.3,40.2-810.5,40.2C8304.8,4306.4,8199.5,4300.7,8143.9,4273.8z M7584.4,1572.2c0-19.2-109.2-722.4-243.4-1561.6l-243.3-1529H4275.3c-1552,0-2822.4,7.7-2822.4,15.3c0,7.7-159,703.2-354.5,1546.3C903,884.3,744,1579.8,744,1589.4c0,7.7,1538.6,15.3,3420.2,15.3C7408.1,1604.7,7584.4,1602.8,7584.4,1572.2z M1583.2-3129.9c120.7-59.4,185.9-164.8,183.9-302.8c0-63.2-13.4-132.2-32.6-168.6c-99.6-187.8-381.3-239.5-540.3-99.6c-183.9,162.9-147.5,461.8,70.9,571C1370.5-3078.2,1475.9-3078.2,1583.2-3129.9z M7266.3-3149.1c159-107.3,203.1-329.6,97.7-479c-74.7-105.4-164.8-151.4-293.2-151.4c-116.9,0-189.7,32.6-258.7,113.1c-203.1,241.4-24.9,592.1,287.4,571C7164.8-3099.2,7222.2-3118.4,7266.3-3149.1z"/><path d="M1995.2,1355.6c-23-9.6-49.8-34.5-61.3-55.6c-15.3-24.9-21.1-435-21.1-1274.2V-1210l49.8-38.3c59.4-46,82.4-49.8,151.4-17.2c30.7,13.4,55.6,46,69,90.1c11.5,46,17.2,473.3,13.4,1260.8c-5.7,1163.1-5.7,1193.7-44.1,1230.1C2102.5,1361.4,2048.8,1376.7,1995.2,1355.6z"/><path d="M3393.9,1355.6c-23-9.6-49.8-34.5-61.3-55.6c-15.3-24.9-21.1-433-21.1-1266.5v-1228.2l49.8-49.8c38.3-38.3,59.4-46,109.2-36.4c126.5,24.9,118.8-51.7,124.5,1291.4c3.8,846.9-1.9,1235.9-15.3,1270.4c-11.5,28.7-44.1,59.4-69,72.8C3455.2,1378.6,3451.4,1378.6,3393.9,1355.6z"/><path d="M4792.6,1351.8c-23-11.5-49.8-42.1-63.2-70.9c-13.4-34.5-19.2-419.6-15.3-1270.4c5.7-1343.2-1.9-1266.5,124.5-1291.4c49.8-9.6,70.9-1.9,109.2,36.4l49.8,49.8V39.3c0,1149.7-1.9,1237.8-32.6,1274.2C4922.9,1363.3,4848.2,1380.5,4792.6,1351.8z"/><path d="M6204.8,1349.9c-97.7-49.8-95.8-32.6-90.1-1331.7l3.8-1214.8l53.6-46c65.2-55.6,107.3-57.5,174.4-5.8l49.8,38.3V41.2c0,1166.9-1.9,1253.1-32.6,1279.9C6312.1,1367.1,6258.5,1376.7,6204.8,1349.9z"/></g></g>
</svg>