<?xml version="1.0" encoding="utf-8"?>
<!-- Svg Vector Icons : http://www.onlinewebfonts.com/icon -->
<!DOCTYPE svg PUBLIC "-//W3C//DTD SVG 1.1//EN" "http://www.w3.org/Graphics/SVG/1.1/DTD/svg11.dtd">
<svg version="1.1" xmlns="http://www.w3.org/2000/svg" xmlns:xlink="http://www.w3.org/1999/xlink" x="0px" y="0px" viewBox="0 0 1000 1000" enable-background="new 0 0 1000 1000" xml:space="preserve">
<metadata> Svg Vector Icons : http://www.onlinewebfonts.com/icon </metadata>
<g><g transform="translate(0.000000,511.000000) scale(0.100000,-0.100000)"><path d="M4062,4612.1l-46-36.4l-9.6-798.5l-9.6-796.6l-417.5,450c-231.7,248.9-427,451.9-434.7,451.9c-9.6,0-63.2-42.1-118.7-93.8l-101.5-95.7l97.7-101.5c53.6-55.5,327.5-350.4,610.9-653c281.5-302.6,518.9-549.6,528.5-545.8c19.2,7.7,1204.5,1283,1204.5,1298.3c0,5.7-46,55.5-101.5,111.1l-101.5,99.6l-415.6-450c-229.8-247-425.1-450-432.8-450c-7.7,0-15.3,350.4-15.3,779.4l-1.9,781.3l-51.7,42.1C4184.5,4658,4121.4,4660,4062,4612.1z"/><path d="M8104.4,4183.2c-36.4-23-80.4-68.9-97.7-99.6c-21.1-38.3-84.3-381.1-180-986.2c-80.4-511.3-151.3-944.1-155.1-961.3c-9.6-32.5-201.1-34.5-3680.5-34.5c-3515.8,0-3674.8-1.9-3738-34.5c-70.9-38.3-153.2-170.4-153.2-247c0-78.5,859.8-3768.6,892.4-3831.8c19.2-34.5,65.1-80.4,101.5-105.3l68.9-42.1l2910.7-5.7l2912.6-3.9l-28.7-191.5l-28.7-191.5H4150.1c-2380.3,0-2793.9-3.8-2897.3-28.7C645.8-2724,339.4-3354,607.5-3903.6c176.2-360,591.7-576.4,980.4-511.3c289.1,49.8,553.4,245.1,681.7,499.8c113,225.9,132.1,463.4,59.4,708.5l-11.5,42.1h1937.9h1937.9l-11.5-42.1c-132.1-450,65.1-915.4,474.9-1118.3c563-277.7,1223.6,59.4,1334.7,681.7c49.8,285.3-46,584.1-258.5,794.7c-65.1,63.2-139.8,132.1-168.5,153.2l-51.7,38.3l501.7,3140.5L8516.1,3624l584.1,9.6c540,9.6,589.8,13.4,649.2,47.9c36.4,21.1,80.4,59.4,101.5,86.2c90,120.6,51.7,325.5-76.6,411.7l-70.9,47.9h-767.9C8169.5,4227.2,8167.6,4227.2,8104.4,4183.2z M7568.2,1490.8c0-9.6-107.2-691.3-239.4-1514.7c-132.1-825.3-239.4-1507-239.4-1514.7c0-9.6-1260-17.2-2801.6-17.2H1484.5L1316-822.5C1224.1-420.4,1063.2,269,961.7,709.5L776,1508h3397.1C6153.1,1508,7568.2,1500.3,7568.2,1490.8z M1626.2-3214.2c178.1-134.1,197.2-356.2,46-507.5c-132.1-134-310.2-139.8-450-17.2c-86.2,76.6-113,151.3-103.4,275.8c9.6,120.7,70.8,216.4,172.3,268.1C1377.3-3151,1555.3-3162.6,1626.2-3214.2z M7198.7-3185.5c122.5-46,201.1-166.6,201.1-304.5c0-151.3-97.7-281.5-248.9-327.5c-132.1-38.3-308.3,42.1-377.2,176.2c-36.4,69-36.4,233.6-1.9,300.7C6846.3-3195.1,7039.7-3124.3,7198.7-3185.5z"/><path d="M2131.7,1247.5c-40.2-49.8-40.2-65.1-40.2-1271.5c0-1206.4,0-1221.7,40.2-1271.5c51.7-65.1,164.7-70.9,220.2-9.6c34.5,38.3,36.4,88.1,36.4,1284.9v1244.7l-46,36.4C2275.4,1314.6,2179.6,1308.8,2131.7,1247.5z"/><path d="M3529.6,1247.5c-40.2-49.8-40.2-65.1-40.2-1271.5c0-1206.4,0-1221.7,40.2-1271.5c51.7-65.1,164.7-70.9,220.2-9.6c34.5,38.3,36.4,88.1,36.4,1284.9v1244.7l-46,36.4C3673.3,1314.6,3577.5,1308.8,3529.6,1247.5z"/><path d="M4935.2,1249.5l-47.9-46V-20.1c0-1210.3,0-1225.6,40.2-1275.4c51.7-65.1,164.7-70.9,220.2-9.6c34.5,38.3,36.4,88.1,36.4,1284.9v1244.7l-46,36.4C5076.9,1310.8,4990.7,1306.9,4935.2,1249.5z"/><path d="M6325.4,1247.5c-40.2-49.8-40.2-65.1-40.2-1271.5c0-1206.4,0-1221.7,40.2-1271.5c51.7-65.1,164.7-70.9,220.2-9.6c34.5,38.3,36.4,88.1,36.4,1284.9v1244.7l-46,36.4C6469.1,1314.6,6373.3,1308.8,6325.4,1247.5z"/></g></g>
</svg>